# MagicaVoxel @ Ephtracy

# group
o 

# material
mtllib bow_2.mtl
usemtl palette

# normals
vn -1 0 0
vn 1 0 0
vn 0 0 1
vn 0 0 -1
vn 0 -1 0
vn 0 1 0

# texcoords
vt 0.220703 0.5
vt 0.251953 0.5
vt 0.255859 0.5
vt 0.259766 0.5
vt 0.263672 0.5
vt 0.267578 0.5
vt 0.271484 0.5
vt 0.275391 0.5
vt 0.279297 0.5
vt 0.306641 0.5
vt 0.310547 0.5

# verts
v -0.7 0.2 0
v -0.7 0.2 -0.1
v -0.7 0.5 0
v -0.7 0.5 -0.1
v -0.6 0.1 0
v -0.6 0.1 -0.1
v -0.6 0.2 0
v -0.6 0.2 -0.1
v -0.6 0.5 0
v -0.6 0.5 -0.1
v -0.6 0.9 0
v -0.6 0.9 -0.1
v -0.6 1.4 0
v -0.6 1.4 -0.1
v -0.6 1.5 0
v -0.6 1.5 -0.1
v -0.6 1.6 0
v -0.6 1.6 -0.1
v -0.5 0.9 0
v -0.5 0.9 -0.1
v -0.5 1.1 0
v -0.5 1.1 -0.1
v -0.5 1.3 0
v -0.5 1.3 -0.1
v -0.5 1.4 0
v -0.5 1.4 -0.1
v -0.4 1.1 0
v -0.4 1.1 -0.1
v -0.4 1.2 0
v -0.4 1.2 -0.1
v -0.4 1.3 0
v -0.4 1.3 -0.1
v -0.2 0.3 0
v -0.2 0.3 -0.1
v -0.2 0.4 0
v -0.2 0.4 -0.1
v -0.2 1.3 0
v -0.2 1.3 -0.1
v -0.2 1.4 0
v -0.2 1.4 -0.1
v -0.1 0.9 0
v -0.1 0.9 -0.1
v -0.1 1 0
v -0.1 1 -0.1
v 0 0.4 0
v 0 0.4 -0.1
v 0 0.5 0
v 0 0.5 -0.1
v 0 0.8 0
v 0 0.8 -0.1
v 0 0.9 0
v 0 0.9 -0.1
v 0 1.4 0
v 0 1.4 -0.1
v 0 1.5 0
v 0 1.5 -0.1
v 0.1 0.7 0
v 0.1 0.7 -0.1
v 0.1 0.8 0
v 0.1 0.8 -0.1
v 0.2 0.5 0
v 0.2 0.5 -0.1
v 0.2 0.6 0
v 0.2 0.6 -0.1
v 0.2 0.7 0
v 0.2 0.7 -0.1
v 0.4 0.7 0
v 0.4 0.7 -0.1
v 0.4 0.9 0
v 0.4 0.9 -0.1
v 0.4 1.5 0
v 0.4 1.5 -0.1
v 0.4 1.6 0
v 0.4 1.6 -0.1
v 0.5 0.9 0
v 0.5 0.9 -0.1
v 0.5 1.1 0
v 0.5 1.1 -0.1
v 0.6 1.1 0
v 0.6 1.1 -0.1
v 0.6 1.3 0
v 0.6 1.3 -0.1
v -0.5 0.1 0
v -0.5 0.1 -0.1
v -0.5 0.2 0
v -0.5 0.2 -0.1
v -0.5 1.5 0
v -0.5 1.5 -0.1
v -0.5 1.6 0
v -0.5 1.6 -0.1
v -0.4 0.3 0
v -0.4 0.3 -0.1
v -0.4 0.5 0
v -0.4 0.5 -0.1
v -0.4 1.4 0
v -0.4 1.4 -0.1
v -0.4 1.5 0
v -0.4 1.5 -0.1
v -0.3 0.5 0
v -0.3 0.5 -0.1
v -0.3 0.9 0
v -0.3 0.9 -0.1
v -0.3 1.3 0
v -0.3 1.3 -0.1
v -0.3 1.4 0
v -0.3 1.4 -0.1
v -0.2 0.2 0
v -0.2 0.2 -0.1
v -0.2 0.3 0
v -0.2 0.3 -0.1
v -0.2 0.9 0
v -0.2 0.9 -0.1
v -0.2 1 0
v -0.2 1 -0.1
v 0 0.3 0
v 0 0.3 -0.1
v 0 0.4 0
v 0 0.4 -0.1
v 0 1 0
v 0 1 -0.1
v 0 1.1 0
v 0 1.1 -0.1
v 0 1.2 0
v 0 1.2 -0.1
v 0.1 0.9 0
v 0.1 0.9 -0.1
v 0.1 1 0
v 0.1 1 -0.1
v 0.2 0.4 0
v 0.2 0.4 -0.1
v 0.2 0.5 0
v 0.2 0.5 -0.1
v 0.2 0.8 0
v 0.2 0.8 -0.1
v 0.2 0.9 0
v 0.2 0.9 -0.1
v 0.3 0.5 0
v 0.3 0.5 -0.1
v 0.3 0.6 0
v 0.3 0.6 -0.1
v 0.3 0.7 0
v 0.3 0.7 -0.1
v 0.3 0.8 0
v 0.3 0.8 -0.1
v 0.4 0.6 0
v 0.4 0.6 -0.1
v 0.4 0.7 0
v 0.4 0.7 -0.1
v 0.4 1.2 0
v 0.4 1.2 -0.1
v 0.4 1.3 0
v 0.4 1.3 -0.1
v 0.5 0.7 0
v 0.5 0.7 -0.1
v 0.5 0.9 0
v 0.5 0.9 -0.1
v 0.6 0.9 0
v 0.6 0.9 -0.1
v 0.6 1.1 0
v 0.6 1.1 -0.1
v 0.7 1.1 0
v 0.7 1.1 -0.1
v 0.7 1.3 0
v 0.7 1.3 -0.1
v 0.7 1.4 0
v 0.7 1.4 -0.1
v 0.7 1.5 0
v 0.7 1.5 -0.1
v 0.7 1.6 0
v 0.7 1.6 -0.1
v 0.8 1.4 0
v 0.8 1.4 -0.1
v 0.8 1.5 0
v 0.8 1.5 -0.1
v -0.7 0.2 0
v -0.7 0.5 0
v -0.6 0.1 0
v -0.6 0.2 0
v -0.6 0.3 0
v -0.6 0.4 0
v -0.6 0.5 0
v -0.6 0.9 0
v -0.6 1.4 0
v -0.6 1.5 0
v -0.6 1.6 0
v -0.5 0.1 0
v -0.5 0.2 0
v -0.5 0.3 0
v -0.5 0.4 0
v -0.5 0.5 0
v -0.5 0.7 0
v -0.5 0.8 0
v -0.5 0.9 0
v -0.5 1.1 0
v -0.5 1.3 0
v -0.5 1.4 0
v -0.5 1.5 0
v -0.5 1.6 0
v -0.4 0.2 0
v -0.4 0.3 0
v -0.4 0.5 0
v -0.4 0.7 0
v -0.4 0.8 0
v -0.4 0.9 0
v -0.4 1 0
v -0.4 1.1 0
v -0.4 1.2 0
v -0.4 1.3 0
v -0.4 1.4 0
v -0.4 1.5 0
v -0.3 0.5 0
v -0.3 0.9 0
v -0.3 1 0
v -0.3 1.1 0
v -0.3 1.2 0
v -0.3 1.3 0
v -0.3 1.4 0
v -0.2 0.2 0
v -0.2 0.3 0
v -0.2 0.4 0
v -0.2 0.9 0
v -0.2 1 0
v -0.2 1.1 0
v -0.2 1.2 0
v -0.2 1.3 0
v -0.2 1.4 0
v -0.1 0.9 0
v -0.1 1 0
v -0.1 1.1 0
v -0.1 1.2 0
v -0.1 1.3 0
v 0 0.3 0
v 0 0.4 0
v 0 0.5 0
v 0 0.8 0
v 0 0.9 0
v 0 1 0
v 0 1.1 0
v 0 1.2 0
v 0 1.3 0
v 0 1.4 0
v 0 1.5 0
v 0.1 0.7 0
v 0.1 0.8 0
v 0.1 0.9 0
v 0.1 1 0
v 0.1 1.3 0
v 0.1 1.4 0
v 0.2 0.4 0
v 0.2 0.5 0
v 0.2 0.6 0
v 0.2 0.7 0
v 0.2 0.8 0
v 0.2 0.9 0
v 0.2 1.3 0
v 0.2 1.4 0
v 0.3 0.5 0
v 0.3 0.6 0
v 0.3 0.7 0
v 0.3 0.8 0
v 0.4 0.6 0
v 0.4 0.7 0
v 0.4 0.9 0
v 0.4 1.2 0
v 0.4 1.3 0
v 0.4 1.4 0
v 0.4 1.5 0
v 0.4 1.6 0
v 0.5 0.7 0
v 0.5 0.9 0
v 0.5 1.1 0
v 0.5 1.4 0
v 0.5 1.5 0
v 0.6 0.9 0
v 0.6 1.1 0
v 0.6 1.3 0
v 0.6 1.4 0
v 0.6 1.5 0
v 0.7 1.1 0
v 0.7 1.3 0
v 0.7 1.4 0
v 0.7 1.5 0
v 0.7 1.6 0
v 0.8 1.4 0
v 0.8 1.5 0
v -0.7 0.2 -0.1
v -0.7 0.5 -0.1
v -0.6 0.1 -0.1
v -0.6 0.2 -0.1
v -0.6 0.3 -0.1
v -0.6 0.4 -0.1
v -0.6 0.5 -0.1
v -0.6 0.9 -0.1
v -0.6 1.4 -0.1
v -0.6 1.5 -0.1
v -0.6 1.6 -0.1
v -0.5 0.1 -0.1
v -0.5 0.2 -0.1
v -0.5 0.3 -0.1
v -0.5 0.4 -0.1
v -0.5 0.5 -0.1
v -0.5 0.7 -0.1
v -0.5 0.8 -0.1
v -0.5 0.9 -0.1
v -0.5 1.1 -0.1
v -0.5 1.3 -0.1
v -0.5 1.4 -0.1
v -0.5 1.5 -0.1
v -0.5 1.6 -0.1
v -0.4 0.2 -0.1
v -0.4 0.3 -0.1
v -0.4 0.5 -0.1
v -0.4 0.7 -0.1
v -0.4 0.8 -0.1
v -0.4 0.9 -0.1
v -0.4 1 -0.1
v -0.4 1.1 -0.1
v -0.4 1.2 -0.1
v -0.4 1.3 -0.1
v -0.4 1.4 -0.1
v -0.4 1.5 -0.1
v -0.3 0.5 -0.1
v -0.3 0.9 -0.1
v -0.3 1 -0.1
v -0.3 1.1 -0.1
v -0.3 1.2 -0.1
v -0.3 1.3 -0.1
v -0.3 1.4 -0.1
v -0.2 0.2 -0.1
v -0.2 0.3 -0.1
v -0.2 0.4 -0.1
v -0.2 0.9 -0.1
v -0.2 1 -0.1
v -0.2 1.1 -0.1
v -0.2 1.2 -0.1
v -0.2 1.3 -0.1
v -0.2 1.4 -0.1
v -0.1 0.9 -0.1
v -0.1 1 -0.1
v -0.1 1.1 -0.1
v -0.1 1.2 -0.1
v -0.1 1.3 -0.1
v 0 0.3 -0.1
v 0 0.4 -0.1
v 0 0.5 -0.1
v 0 0.8 -0.1
v 0 0.9 -0.1
v 0 1 -0.1
v 0 1.1 -0.1
v 0 1.2 -0.1
v 0 1.3 -0.1
v 0 1.4 -0.1
v 0 1.5 -0.1
v 0.1 0.7 -0.1
v 0.1 0.8 -0.1
v 0.1 0.9 -0.1
v 0.1 1 -0.1
v 0.1 1.3 -0.1
v 0.1 1.4 -0.1
v 0.2 0.4 -0.1
v 0.2 0.5 -0.1
v 0.2 0.6 -0.1
v 0.2 0.7 -0.1
v 0.2 0.8 -0.1
v 0.2 0.9 -0.1
v 0.2 1.3 -0.1
v 0.2 1.4 -0.1
v 0.3 0.5 -0.1
v 0.3 0.6 -0.1
v 0.3 0.7 -0.1
v 0.3 0.8 -0.1
v 0.4 0.6 -0.1
v 0.4 0.7 -0.1
v 0.4 0.9 -0.1
v 0.4 1.2 -0.1
v 0.4 1.3 -0.1
v 0.4 1.4 -0.1
v 0.4 1.5 -0.1
v 0.4 1.6 -0.1
v 0.5 0.7 -0.1
v 0.5 0.9 -0.1
v 0.5 1.1 -0.1
v 0.5 1.4 -0.1
v 0.5 1.5 -0.1
v 0.6 0.9 -0.1
v 0.6 1.1 -0.1
v 0.6 1.3 -0.1
v 0.6 1.4 -0.1
v 0.6 1.5 -0.1
v 0.7 1.1 -0.1
v 0.7 1.3 -0.1
v 0.7 1.4 -0.1
v 0.7 1.5 -0.1
v 0.7 1.6 -0.1
v 0.8 1.4 -0.1
v 0.8 1.5 -0.1
v -0.6 0.1 0
v -0.5 0.1 0
v -0.6 0.1 -0.1
v -0.5 0.1 -0.1
v -0.7 0.2 0
v -0.6 0.2 0
v -0.5 0.2 0
v -0.4 0.2 0
v -0.2 0.2 0
v -0.7 0.2 -0.1
v -0.6 0.2 -0.1
v -0.5 0.2 -0.1
v -0.4 0.2 -0.1
v -0.2 0.2 -0.1
v -0.2 0.3 0
v 0 0.3 0
v -0.2 0.3 -0.1
v 0 0.3 -0.1
v 0 0.4 0
v 0.2 0.4 0
v 0 0.4 -0.1
v 0.2 0.4 -0.1
v -0.4 0.5 0
v -0.3 0.5 0
v 0.2 0.5 0
v 0.3 0.5 0
v -0.4 0.5 -0.1
v -0.3 0.5 -0.1
v 0.2 0.5 -0.1
v 0.3 0.5 -0.1
v 0.3 0.6 0
v 0.4 0.6 0
v 0.3 0.6 -0.1
v 0.4 0.6 -0.1
v 0.1 0.7 0
v 0.2 0.7 0
v 0.4 0.7 0
v 0.5 0.7 0
v 0.1 0.7 -0.1
v 0.2 0.7 -0.1
v 0.4 0.7 -0.1
v 0.5 0.7 -0.1
v 0 0.8 0
v 0.1 0.8 0
v 0 0.8 -0.1
v 0.1 0.8 -0.1
v -0.3 0.9 0
v -0.2 0.9 0
v -0.1 0.9 0
v 0 0.9 0
v 0.5 0.9 0
v 0.6 0.9 0
v -0.3 0.9 -0.1
v -0.2 0.9 -0.1
v -0.1 0.9 -0.1
v 0 0.9 -0.1
v 0.5 0.9 -0.1
v 0.6 0.9 -0.1
v -0.2 1 0
v -0.1 1 0
v -0.2 1 -0.1
v -0.1 1 -0.1
v 0.6 1.1 0
v 0.7 1.1 0
v 0.6 1.1 -0.1
v 0.7 1.1 -0.1
v 0 1.2 0
v 0.4 1.2 0
v 0 1.2 -0.1
v 0.4 1.2 -0.1
v -0.5 1.3 0
v -0.4 1.3 0
v 0.4 1.3 0
v 0.6 1.3 0
v -0.5 1.3 -0.1
v -0.4 1.3 -0.1
v 0.4 1.3 -0.1
v 0.6 1.3 -0.1
v -0.6 1.4 0
v -0.5 1.4 0
v 0.7 1.4 0
v 0.8 1.4 0
v -0.6 1.4 -0.1
v -0.5 1.4 -0.1
v 0.7 1.4 -0.1
v 0.8 1.4 -0.1
v -0.4 0.3 0
v -0.2 0.3 0
v -0.4 0.3 -0.1
v -0.2 0.3 -0.1
v -0.2 0.4 0
v 0 0.4 0
v -0.2 0.4 -0.1
v 0 0.4 -0.1
v -0.7 0.5 0
v -0.6 0.5 0
v 0 0.5 0
v 0.2 0.5 0
v -0.7 0.5 -0.1
v -0.6 0.5 -0.1
v 0 0.5 -0.1
v 0.2 0.5 -0.1
v 0.3 0.7 0
v 0.4 0.7 0
v 0.3 0.7 -0.1
v 0.4 0.7 -0.1
v 0.2 0.8 0
v 0.3 0.8 0
v 0.2 0.8 -0.1
v 0.3 0.8 -0.1
v -0.6 0.9 0
v -0.5 0.9 0
v 0.1 0.9 0
v 0.2 0.9 0
v 0.4 0.9 0
v 0.5 0.9 0
v -0.6 0.9 -0.1
v -0.5 0.9 -0.1
v 0.1 0.9 -0.1
v 0.2 0.9 -0.1
v 0.4 0.9 -0.1
v 0.5 0.9 -0.1
v 0 1 0
v 0.1 1 0
v 0 1 -0.1
v 0.1 1 -0.1
v -0.5 1.1 0
v -0.4 1.1 0
v 0.5 1.1 0
v 0.6 1.1 0
v -0.5 1.1 -0.1
v -0.4 1.1 -0.1
v 0.5 1.1 -0.1
v 0.6 1.1 -0.1
v -0.3 1.3 0
v -0.2 1.3 0
v -0.3 1.3 -0.1
v -0.2 1.3 -0.1
v -0.4 1.4 0
v -0.3 1.4 0
v -0.2 1.4 0
v 0 1.4 0
v -0.4 1.4 -0.1
v -0.3 1.4 -0.1
v -0.2 1.4 -0.1
v 0 1.4 -0.1
v -0.5 1.5 0
v -0.4 1.5 0
v 0 1.5 0
v 0.4 1.5 0
v 0.7 1.5 0
v 0.8 1.5 0
v -0.5 1.5 -0.1
v -0.4 1.5 -0.1
v 0 1.5 -0.1
v 0.4 1.5 -0.1
v 0.7 1.5 -0.1
v 0.8 1.5 -0.1
v -0.6 1.6 0
v -0.5 1.6 0
v 0.4 1.6 0
v 0.7 1.6 0
v -0.6 1.6 -0.1
v -0.5 1.6 -0.1
v 0.4 1.6 -0.1
v 0.7 1.6 -0.1

# faces
f 3/10/1 2/10/1 1/10/1
f 4/10/1 2/10/1 3/10/1
f 7/11/1 6/11/1 5/11/1
f 8/11/1 6/11/1 7/11/1
f 11/10/1 10/10/1 9/10/1
f 12/10/1 10/10/1 11/10/1
f 15/9/1 14/9/1 13/9/1
f 16/9/1 14/9/1 15/9/1
f 17/1/1 16/1/1 15/1/1
f 18/1/1 16/1/1 17/1/1
f 21/10/1 20/10/1 19/10/1
f 22/10/1 20/10/1 21/10/1
f 25/11/1 24/11/1 23/11/1
f 26/11/1 24/11/1 25/11/1
f 29/10/1 28/10/1 27/10/1
f 30/10/1 28/10/1 29/10/1
f 31/11/1 30/11/1 29/11/1
f 32/11/1 30/11/1 31/11/1
f 35/4/1 34/4/1 33/4/1
f 36/4/1 34/4/1 35/4/1
f 39/10/1 38/10/1 37/10/1
f 40/10/1 38/10/1 39/10/1
f 43/11/1 42/11/1 41/11/1
f 44/11/1 42/11/1 43/11/1
f 47/4/1 46/4/1 45/4/1
f 48/4/1 46/4/1 47/4/1
f 51/11/1 50/11/1 49/11/1
f 52/11/1 50/11/1 51/11/1
f 55/10/1 54/10/1 53/10/1
f 56/10/1 54/10/1 55/10/1
f 59/11/1 58/11/1 57/11/1
f 60/11/1 58/11/1 59/11/1
f 63/4/1 62/4/1 61/4/1
f 64/4/1 62/4/1 63/4/1
f 65/11/1 64/11/1 63/11/1
f 66/11/1 64/11/1 65/11/1
f 69/4/1 68/4/1 67/4/1
f 70/4/1 68/4/1 69/4/1
f 73/10/1 72/10/1 71/10/1
f 74/10/1 72/10/1 73/10/1
f 77/4/1 76/4/1 75/4/1
f 78/4/1 76/4/1 77/4/1
f 81/4/1 80/4/1 79/4/1
f 82/4/1 80/4/1 81/4/1
f 83/11/2 84/11/2 85/11/2
f 85/11/2 84/11/2 86/11/2
f 87/1/2 88/1/2 89/1/2
f 89/1/2 88/1/2 90/1/2
f 91/11/2 92/11/2 93/11/2
f 93/11/2 92/11/2 94/11/2
f 95/8/2 96/8/2 97/8/2
f 97/8/2 96/8/2 98/8/2
f 99/11/2 100/11/2 101/11/2
f 101/11/2 100/11/2 102/11/2
f 103/7/2 104/7/2 105/7/2
f 105/7/2 104/7/2 106/7/2
f 107/4/2 108/4/2 109/4/2
f 109/4/2 108/4/2 110/4/2
f 111/3/2 112/3/2 113/3/2
f 113/3/2 112/3/2 114/3/2
f 115/4/2 116/4/2 117/4/2
f 117/4/2 116/4/2 118/4/2
f 119/7/2 120/7/2 121/7/2
f 121/7/2 120/7/2 122/7/2
f 121/3/2 122/3/2 123/3/2
f 123/3/2 122/3/2 124/3/2
f 125/7/2 126/7/2 127/7/2
f 127/7/2 126/7/2 128/7/2
f 129/4/2 130/4/2 131/4/2
f 131/4/2 130/4/2 132/4/2
f 133/7/2 134/7/2 135/7/2
f 135/7/2 134/7/2 136/7/2
f 137/4/2 138/4/2 139/4/2
f 139/4/2 138/4/2 140/4/2
f 141/7/2 142/7/2 143/7/2
f 143/7/2 142/7/2 144/7/2
f 145/7/2 146/7/2 147/7/2
f 147/7/2 146/7/2 148/7/2
f 149/11/2 150/11/2 151/11/2
f 151/11/2 150/11/2 152/11/2
f 153/4/2 154/4/2 155/4/2
f 155/4/2 154/4/2 156/4/2
f 157/4/2 158/4/2 159/4/2
f 159/4/2 158/4/2 160/4/2
f 161/4/2 162/4/2 163/4/2
f 163/4/2 162/4/2 164/4/2
f 163/11/2 164/11/2 165/11/2
f 165/11/2 164/11/2 166/11/2
f 167/10/2 168/10/2 169/10/2
f 169/10/2 168/10/2 170/10/2
f 171/11/2 172/11/2 173/11/2
f 173/11/2 172/11/2 174/11/2
f 178/10/3 176/10/3 175/10/3
f 179/10/3 176/10/3 178/10/3
f 180/10/3 176/10/3 179/10/3
f 181/10/3 176/10/3 180/10/3
f 186/11/3 178/11/3 177/11/3
f 187/5/3 179/5/3 178/5/3
f 187/11/3 178/11/3 186/11/3
f 188/6/3 180/6/3 179/6/3
f 188/5/3 179/5/3 187/5/3
f 189/5/3 181/5/3 180/5/3
f 189/6/3 180/6/3 188/6/3
f 190/10/3 182/10/3 181/10/3
f 190/5/3 181/5/3 189/5/3
f 191/10/3 182/10/3 190/10/3
f 192/10/3 182/10/3 191/10/3
f 193/10/3 182/10/3 192/10/3
f 196/9/3 184/9/3 183/9/3
f 197/1/3 185/1/3 184/1/3
f 197/9/3 184/9/3 196/9/3
f 198/1/3 185/1/3 197/1/3
f 199/11/3 188/11/3 187/11/3
f 199/11/3 189/11/3 188/11/3
f 199/11/3 190/11/3 189/11/3
f 200/11/3 190/11/3 199/11/3
f 201/5/3 191/5/3 190/5/3
f 201/11/3 190/11/3 200/11/3
f 202/6/3 192/6/3 191/6/3
f 202/5/3 191/5/3 201/5/3
f 203/5/3 193/5/3 192/5/3
f 203/6/3 192/6/3 202/6/3
f 204/10/3 194/10/3 193/10/3
f 204/5/3 193/5/3 203/5/3
f 205/10/3 194/10/3 204/10/3
f 206/10/3 194/10/3 205/10/3
f 208/11/3 196/11/3 195/11/3
f 209/8/3 197/8/3 196/8/3
f 209/11/3 196/11/3 208/11/3
f 210/8/3 197/8/3 209/8/3
f 211/11/3 203/11/3 202/11/3
f 211/11/3 202/11/3 201/11/3
f 211/11/3 204/11/3 203/11/3
f 212/6/3 205/6/3 204/6/3
f 212/11/3 204/11/3 211/11/3
f 213/3/3 206/3/3 205/3/3
f 213/6/3 205/6/3 212/6/3
f 214/10/3 207/10/3 206/10/3
f 214/3/3 206/3/3 213/3/3
f 215/11/3 208/11/3 207/11/3
f 215/10/3 207/10/3 214/10/3
f 216/7/3 209/7/3 208/7/3
f 216/11/3 208/11/3 215/11/3
f 217/7/3 209/7/3 216/7/3
f 218/4/3 200/4/3 199/4/3
f 219/4/3 200/4/3 218/4/3
f 221/3/3 213/3/3 212/3/3
f 222/2/3 214/2/3 213/2/3
f 222/3/3 213/3/3 221/3/3
f 223/11/3 215/11/3 214/11/3
f 223/2/3 214/2/3 222/2/3
f 224/7/3 216/7/3 215/7/3
f 224/11/3 215/11/3 223/11/3
f 225/7/3 216/7/3 224/7/3
f 228/11/3 223/11/3 222/11/3
f 229/7/3 224/7/3 223/7/3
f 229/11/3 223/11/3 228/11/3
f 230/3/3 225/3/3 224/3/3
f 230/7/3 224/7/3 229/7/3
f 231/10/3 226/10/3 225/10/3
f 231/3/3 225/3/3 230/3/3
f 232/4/3 220/4/3 219/4/3
f 233/4/3 220/4/3 232/4/3
f 236/11/3 228/11/3 227/11/3
f 237/7/3 229/7/3 228/7/3
f 237/11/3 228/11/3 236/11/3
f 238/3/3 230/3/3 229/3/3
f 238/7/3 229/7/3 237/7/3
f 239/6/3 231/6/3 230/6/3
f 239/3/3 230/3/3 238/3/3
f 240/10/3 226/10/3 231/10/3
f 240/6/3 231/6/3 239/6/3
f 241/10/3 226/10/3 240/10/3
f 244/11/3 236/11/3 235/11/3
f 245/7/3 237/7/3 236/7/3
f 245/11/3 236/11/3 244/11/3
f 246/7/3 237/7/3 245/7/3
f 247/5/3 241/5/3 240/5/3
f 247/11/3 240/11/3 239/11/3
f 248/10/3 242/10/3 241/10/3
f 248/5/3 241/5/3 247/5/3
f 249/4/3 234/4/3 233/4/3
f 250/4/3 234/4/3 249/4/3
f 252/11/3 244/11/3 243/11/3
f 253/7/3 245/7/3 244/7/3
f 253/11/3 244/11/3 252/11/3
f 254/7/3 245/7/3 253/7/3
f 255/11/3 247/11/3 239/11/3
f 255/6/3 248/6/3 247/6/3
f 256/10/3 242/10/3 248/10/3
f 256/6/3 248/6/3 255/6/3
f 257/4/3 251/4/3 250/4/3
f 258/11/3 252/11/3 251/11/3
f 258/4/3 251/4/3 257/4/3
f 259/7/3 253/7/3 252/7/3
f 259/11/3 252/11/3 258/11/3
f 260/7/3 253/7/3 259/7/3
f 261/7/3 259/7/3 258/7/3
f 262/7/3 259/7/3 261/7/3
f 264/11/3 255/11/3 239/11/3
f 265/5/3 256/5/3 255/5/3
f 265/11/3 255/11/3 264/11/3
f 266/10/3 242/10/3 256/10/3
f 266/5/3 256/5/3 265/5/3
f 267/10/3 242/10/3 266/10/3
f 269/4/3 263/4/3 262/4/3
f 270/4/3 263/4/3 269/4/3
f 272/5/3 267/5/3 266/5/3
f 272/11/3 266/11/3 265/11/3
f 273/10/3 268/10/3 267/10/3
f 273/5/3 267/5/3 272/5/3
f 274/4/3 271/4/3 270/4/3
f 275/4/3 271/4/3 274/4/3
f 276/11/3 272/11/3 265/11/3
f 277/6/3 273/6/3 272/6/3
f 277/11/3 272/11/3 276/11/3
f 278/10/3 268/10/3 273/10/3
f 278/6/3 273/6/3 277/6/3
f 279/4/3 276/4/3 275/4/3
f 280/11/3 277/11/3 276/11/3
f 280/4/3 276/4/3 279/4/3
f 281/5/3 278/5/3 277/5/3
f 281/11/3 277/11/3 280/11/3
f 282/10/3 268/10/3 278/10/3
f 282/5/3 278/5/3 281/5/3
f 283/10/3 268/10/3 282/10/3
f 284/11/3 282/11/3 281/11/3
f 285/11/3 282/11/3 284/11/3
f 286/10/4 287/10/4 289/10/4
f 289/10/4 287/10/4 290/10/4
f 290/10/4 287/10/4 291/10/4
f 291/10/4 287/10/4 292/10/4
f 288/11/4 289/11/4 297/11/4
f 289/5/4 290/5/4 298/5/4
f 297/11/4 289/11/4 298/11/4
f 290/6/4 291/6/4 299/6/4
f 298/5/4 290/5/4 299/5/4
f 291/5/4 292/5/4 300/5/4
f 299/6/4 291/6/4 300/6/4
f 292/10/4 293/10/4 301/10/4
f 300/5/4 292/5/4 301/5/4
f 301/10/4 293/10/4 302/10/4
f 302/10/4 293/10/4 303/10/4
f 303/10/4 293/10/4 304/10/4
f 294/9/4 295/9/4 307/9/4
f 295/1/4 296/1/4 308/1/4
f 307/9/4 295/9/4 308/9/4
f 308/1/4 296/1/4 309/1/4
f 298/11/4 299/11/4 310/11/4
f 299/11/4 300/11/4 310/11/4
f 300/11/4 301/11/4 310/11/4
f 310/11/4 301/11/4 311/11/4
f 301/5/4 302/5/4 312/5/4
f 311/11/4 301/11/4 312/11/4
f 302/6/4 303/6/4 313/6/4
f 312/5/4 302/5/4 313/5/4
f 303/5/4 304/5/4 314/5/4
f 313/6/4 303/6/4 314/6/4
f 304/10/4 305/10/4 315/10/4
f 314/5/4 304/5/4 315/5/4
f 315/10/4 305/10/4 316/10/4
f 316/10/4 305/10/4 317/10/4
f 306/11/4 307/11/4 319/11/4
f 307/8/4 308/8/4 320/8/4
f 319/11/4 307/11/4 320/11/4
f 320/8/4 308/8/4 321/8/4
f 313/11/4 314/11/4 322/11/4
f 312/11/4 313/11/4 322/11/4
f 314/11/4 315/11/4 322/11/4
f 315/6/4 316/6/4 323/6/4
f 322/11/4 315/11/4 323/11/4
f 316/3/4 317/3/4 324/3/4
f 323/6/4 316/6/4 324/6/4
f 317/10/4 318/10/4 325/10/4
f 324/3/4 317/3/4 325/3/4
f 318/11/4 319/11/4 326/11/4
f 325/10/4 318/10/4 326/10/4
f 319/7/4 320/7/4 327/7/4
f 326/11/4 319/11/4 327/11/4
f 327/7/4 320/7/4 328/7/4
f 310/4/4 311/4/4 329/4/4
f 329/4/4 311/4/4 330/4/4
f 323/3/4 324/3/4 332/3/4
f 324/2/4 325/2/4 333/2/4
f 332/3/4 324/3/4 333/3/4
f 325/11/4 326/11/4 334/11/4
f 333/2/4 325/2/4 334/2/4
f 326/7/4 327/7/4 335/7/4
f 334/11/4 326/11/4 335/11/4
f 335/7/4 327/7/4 336/7/4
f 333/11/4 334/11/4 339/11/4
f 334/7/4 335/7/4 340/7/4
f 339/11/4 334/11/4 340/11/4
f 335/3/4 336/3/4 341/3/4
f 340/7/4 335/7/4 341/7/4
f 336/10/4 337/10/4 342/10/4
f 341/3/4 336/3/4 342/3/4
f 330/4/4 331/4/4 343/4/4
f 343/4/4 331/4/4 344/4/4
f 338/11/4 339/11/4 347/11/4
f 339/7/4 340/7/4 348/7/4
f 347/11/4 339/11/4 348/11/4
f 340/3/4 341/3/4 349/3/4
f 348/7/4 340/7/4 349/7/4
f 341/6/4 342/6/4 350/6/4
f 349/3/4 341/3/4 350/3/4
f 342/10/4 337/10/4 351/10/4
f 350/6/4 342/6/4 351/6/4
f 351/10/4 337/10/4 352/10/4
f 346/11/4 347/11/4 355/11/4
f 347/7/4 348/7/4 356/7/4
f 355/11/4 347/11/4 356/11/4
f 356/7/4 348/7/4 357/7/4
f 351/5/4 352/5/4 358/5/4
f 350/11/4 351/11/4 358/11/4
f 352/10/4 353/10/4 359/10/4
f 358/5/4 352/5/4 359/5/4
f 344/4/4 345/4/4 360/4/4
f 360/4/4 345/4/4 361/4/4
f 354/11/4 355/11/4 363/11/4
f 355/7/4 356/7/4 364/7/4
f 363/11/4 355/11/4 364/11/4
f 364/7/4 356/7/4 365/7/4
f 350/11/4 358/11/4 366/11/4
f 358/6/4 359/6/4 366/6/4
f 359/10/4 353/10/4 367/10/4
f 366/6/4 359/6/4 367/6/4
f 361/4/4 362/4/4 368/4/4
f 362/11/4 363/11/4 369/11/4
f 368/4/4 362/4/4 369/4/4
f 363/7/4 364/7/4 370/7/4
f 369/11/4 363/11/4 370/11/4
f 370/7/4 364/7/4 371/7/4
f 369/7/4 370/7/4 372/7/4
f 372/7/4 370/7/4 373/7/4
f 350/11/4 366/11/4 375/11/4
f 366/5/4 367/5/4 376/5/4
f 375/11/4 366/11/4 376/11/4
f 367/10/4 353/10/4 377/10/4
f 376/5/4 367/5/4 377/5/4
f 377/10/4 353/10/4 378/10/4
f 373/4/4 374/4/4 380/4/4
f 380/4/4 374/4/4 381/4/4
f 377/5/4 378/5/4 383/5/4
f 376/11/4 377/11/4 383/11/4
f 378/10/4 379/10/4 384/10/4
f 383/5/4 378/5/4 384/5/4
f 381/4/4 382/4/4 385/4/4
f 385/4/4 382/4/4 386/4/4
f 376/11/4 383/11/4 387/11/4
f 383/6/4 384/6/4 388/6/4
f 387/11/4 383/11/4 388/11/4
f 384/10/4 379/10/4 389/10/4
f 388/6/4 384/6/4 389/6/4
f 386/4/4 387/4/4 390/4/4
f 387/11/4 388/11/4 391/11/4
f 390/4/4 387/4/4 391/4/4
f 388/5/4 389/5/4 392/5/4
f 391/11/4 388/11/4 392/11/4
f 389/10/4 379/10/4 393/10/4
f 392/5/4 389/5/4 393/5/4
f 393/10/4 379/10/4 394/10/4
f 392/11/4 393/11/4 395/11/4
f 395/11/4 393/11/4 396/11/4
f 399/11/5 398/11/5 397/11/5
f 400/11/5 398/11/5 399/11/5
f 406/10/5 402/10/5 401/10/5
f 407/10/5 402/10/5 406/10/5
f 408/11/5 404/11/5 403/11/5
f 409/4/5 405/4/5 404/4/5
f 409/11/5 404/11/5 408/11/5
f 410/4/5 405/4/5 409/4/5
f 413/4/5 412/4/5 411/4/5
f 414/4/5 412/4/5 413/4/5
f 417/4/5 416/4/5 415/4/5
f 418/4/5 416/4/5 417/4/5
f 423/11/5 420/11/5 419/11/5
f 424/11/5 420/11/5 423/11/5
f 425/4/5 422/4/5 421/4/5
f 426/4/5 422/4/5 425/4/5
f 429/7/5 428/7/5 427/7/5
f 430/7/5 428/7/5 429/7/5
f 435/11/5 432/11/5 431/11/5
f 436/11/5 432/11/5 435/11/5
f 437/4/5 434/4/5 433/4/5
f 438/4/5 434/4/5 437/4/5
f 441/11/5 440/11/5 439/11/5
f 442/11/5 440/11/5 441/11/5
f 449/3/5 444/3/5 443/3/5
f 450/3/5 444/3/5 449/3/5
f 451/11/5 446/11/5 445/11/5
f 452/11/5 446/11/5 451/11/5
f 453/4/5 448/4/5 447/4/5
f 454/4/5 448/4/5 453/4/5
f 457/11/5 456/11/5 455/11/5
f 458/11/5 456/11/5 457/11/5
f 461/4/5 460/4/5 459/4/5
f 462/4/5 460/4/5 461/4/5
f 465/11/5 464/11/5 463/11/5
f 466/11/5 464/11/5 465/11/5
f 471/11/5 468/11/5 467/11/5
f 472/11/5 468/11/5 471/11/5
f 473/11/5 470/11/5 469/11/5
f 474/11/5 470/11/5 473/11/5
f 479/9/5 476/9/5 475/9/5
f 480/9/5 476/9/5 479/9/5
f 481/11/5 478/11/5 477/11/5
f 482/11/5 478/11/5 481/11/5
f 483/4/6 484/4/6 485/4/6
f 485/4/6 484/4/6 486/4/6
f 487/4/6 488/4/6 489/4/6
f 489/4/6 488/4/6 490/4/6
f 491/10/6 492/10/6 495/10/6
f 495/10/6 492/10/6 496/10/6
f 493/4/6 494/4/6 497/4/6
f 497/4/6 494/4/6 498/4/6
f 499/7/6 500/7/6 501/7/6
f 501/7/6 500/7/6 502/7/6
f 503/7/6 504/7/6 505/7/6
f 505/7/6 504/7/6 506/7/6
f 507/10/6 508/10/6 513/10/6
f 513/10/6 508/10/6 514/10/6
f 509/7/6 510/7/6 515/7/6
f 515/7/6 510/7/6 516/7/6
f 511/4/6 512/4/6 517/4/6
f 517/4/6 512/4/6 518/4/6
f 519/7/6 520/7/6 521/7/6
f 521/7/6 520/7/6 522/7/6
f 523/10/6 524/10/6 527/10/6
f 527/10/6 524/10/6 528/10/6
f 525/4/6 526/4/6 529/4/6
f 529/4/6 526/4/6 530/4/6
f 531/7/6 532/7/6 533/7/6
f 533/7/6 532/7/6 534/7/6
f 535/7/6 536/7/6 539/7/6
f 539/7/6 536/7/6 540/7/6
f 537/10/6 538/10/6 541/10/6
f 541/10/6 538/10/6 542/10/6
f 543/8/6 544/8/6 549/8/6
f 549/8/6 544/8/6 550/8/6
f 545/10/6 546/10/6 551/10/6
f 551/10/6 546/10/6 552/10/6
f 547/11/6 548/11/6 553/11/6
f 553/11/6 548/11/6 554/11/6
f 555/1/6 556/1/6 559/1/6
f 559/1/6 556/1/6 560/1/6
f 557/10/6 558/10/6 561/10/6
f 561/10/6 558/10/6 562/10/6
