# MagicaVoxel @ Ephtracy

# group
o 

# material
mtllib bow_idle.mtl
usemtl palette

# normals
vn -1 0 0
vn 1 0 0
vn 0 0 1
vn 0 0 -1
vn 0 -1 0
vn 0 1 0

# texcoords
vt 0.251953 0.5
vt 0.255859 0.5
vt 0.259766 0.5
vt 0.263672 0.5
vt 0.267578 0.5
vt 0.306641 0.5
vt 0.310547 0.5

# verts
v -0.7 0.1 0
v -0.7 0.1 -0.1
v -0.7 0.5 0
v -0.7 0.5 -0.1
v -0.6 0 0
v -0.6 0 -0.1
v -0.6 0.1 0
v -0.6 0.1 -0.1
v -0.6 0.5 0
v -0.6 0.5 -0.1
v -0.6 0.8 0
v -0.6 0.8 -0.1
v -0.5 0.8 0
v -0.5 0.8 -0.1
v -0.5 1 0
v -0.5 1 -0.1
v -0.4 1 0
v -0.4 1 -0.1
v -0.4 1.1 0
v -0.4 1.1 -0.1
v -0.3 0.3 0
v -0.3 0.3 -0.1
v -0.3 0.4 0
v -0.3 0.4 -0.1
v -0.3 1.1 0
v -0.3 1.1 -0.1
v -0.3 1.2 0
v -0.3 1.2 -0.1
v -0.2 0.4 0
v -0.2 0.4 -0.1
v -0.2 0.5 0
v -0.2 0.5 -0.1
v -0.2 1.2 0
v -0.2 1.2 -0.1
v -0.2 1.3 0
v -0.2 1.3 -0.1
v -0.1 0.5 0
v -0.1 0.5 -0.1
v -0.1 0.6 0
v -0.1 0.6 -0.1
v 0 0.6 0
v 0 0.6 -0.1
v 0 0.7 0
v 0 0.7 -0.1
v 0 1.3 0
v 0 1.3 -0.1
v 0 1.4 0
v 0 1.4 -0.1
v 0.1 0.7 0
v 0.1 0.7 -0.1
v 0.1 0.8 0
v 0.1 0.8 -0.1
v 0.2 0.8 0
v 0.2 0.8 -0.1
v 0.2 0.9 0
v 0.2 0.9 -0.1
v 0.3 0.9 0
v 0.3 0.9 -0.1
v 0.3 1 0
v 0.3 1 -0.1
v 0.3 1.4 0
v 0.3 1.4 -0.1
v 0.3 1.5 0
v 0.3 1.5 -0.1
v 0.4 1 0
v 0.4 1 -0.1
v 0.4 1.1 0
v 0.4 1.1 -0.1
v 0.5 1.1 0
v 0.5 1.1 -0.1
v 0.5 1.2 0
v 0.5 1.2 -0.1
v -0.5 0 0
v -0.5 0 -0.1
v -0.5 0.1 0
v -0.5 0.1 -0.1
v -0.4 0.1 0
v -0.4 0.1 -0.1
v -0.4 0.2 0
v -0.4 0.2 -0.1
v -0.4 0.3 0
v -0.4 0.3 -0.1
v -0.4 0.5 0
v -0.4 0.5 -0.1
v -0.3 0.2 0
v -0.3 0.2 -0.1
v -0.3 0.3 0
v -0.3 0.3 -0.1
v -0.3 0.5 0
v -0.3 0.5 -0.1
v -0.3 0.8 0
v -0.3 0.8 -0.1
v -0.2 0.3 0
v -0.2 0.3 -0.1
v -0.2 0.4 0
v -0.2 0.4 -0.1
v -0.2 0.8 0
v -0.2 0.8 -0.1
v -0.2 0.9 0
v -0.2 0.9 -0.1
v -0.1 0.4 0
v -0.1 0.4 -0.1
v -0.1 0.5 0
v -0.1 0.5 -0.1
v -0.1 0.9 0
v -0.1 0.9 -0.1
v -0.1 1 0
v -0.1 1 -0.1
v 0 0.5 0
v 0 0.5 -0.1
v 0 0.6 0
v 0 0.6 -0.1
v 0 1 0
v 0 1 -0.1
v 0 1.1 0
v 0 1.1 -0.1
v 0.1 0.6 0
v 0.1 0.6 -0.1
v 0.1 0.7 0
v 0.1 0.7 -0.1
v 0.2 0.7 0
v 0.2 0.7 -0.1
v 0.2 0.8 0
v 0.2 0.8 -0.1
v 0.3 0.8 0
v 0.3 0.8 -0.1
v 0.3 0.9 0
v 0.3 0.9 -0.1
v 0.3 1.1 0
v 0.3 1.1 -0.1
v 0.3 1.2 0
v 0.3 1.2 -0.1
v 0.4 0.9 0
v 0.4 0.9 -0.1
v 0.4 1 0
v 0.4 1 -0.1
v 0.5 1 0
v 0.5 1 -0.1
v 0.5 1.1 0
v 0.5 1.1 -0.1
v 0.6 1.1 0
v 0.6 1.1 -0.1
v 0.6 1.2 0
v 0.6 1.2 -0.1
v 0.7 1.2 0
v 0.7 1.2 -0.1
v 0.7 1.3 0
v 0.7 1.3 -0.1
v 0.7 1.4 0
v 0.7 1.4 -0.1
v 0.7 1.5 0
v 0.7 1.5 -0.1
v 0.8 1.3 0
v 0.8 1.3 -0.1
v 0.8 1.4 0
v 0.8 1.4 -0.1
v -0.7 0.1 0
v -0.7 0.5 0
v -0.6 0 0
v -0.6 0.1 0
v -0.6 0.2 0
v -0.6 0.4 0
v -0.6 0.5 0
v -0.6 0.8 0
v -0.5 0 0
v -0.5 0.1 0
v -0.5 0.2 0
v -0.5 0.4 0
v -0.5 0.5 0
v -0.5 0.6 0
v -0.5 0.7 0
v -0.5 0.8 0
v -0.5 1 0
v -0.4 0.1 0
v -0.4 0.2 0
v -0.4 0.3 0
v -0.4 0.5 0
v -0.4 0.6 0
v -0.4 0.7 0
v -0.4 0.8 0
v -0.4 0.9 0
v -0.4 1 0
v -0.4 1.1 0
v -0.3 0.2 0
v -0.3 0.3 0
v -0.3 0.4 0
v -0.3 0.5 0
v -0.3 0.8 0
v -0.3 0.9 0
v -0.3 1 0
v -0.3 1.1 0
v -0.3 1.2 0
v -0.2 0.3 0
v -0.2 0.4 0
v -0.2 0.5 0
v -0.2 0.8 0
v -0.2 0.9 0
v -0.2 1 0
v -0.2 1.1 0
v -0.2 1.2 0
v -0.2 1.3 0
v -0.1 0.4 0
v -0.1 0.5 0
v -0.1 0.6 0
v -0.1 0.9 0
v -0.1 1 0
v -0.1 1.1 0
v -0.1 1.2 0
v 0 0.5 0
v 0 0.6 0
v 0 0.7 0
v 0 1 0
v 0 1.1 0
v 0 1.2 0
v 0 1.3 0
v 0 1.4 0
v 0.1 0.6 0
v 0.1 0.7 0
v 0.1 0.8 0
v 0.1 1.2 0
v 0.1 1.3 0
v 0.2 0.7 0
v 0.2 0.8 0
v 0.2 0.9 0
v 0.2 1.2 0
v 0.2 1.3 0
v 0.3 0.8 0
v 0.3 0.9 0
v 0.3 1 0
v 0.3 1.1 0
v 0.3 1.2 0
v 0.3 1.3 0
v 0.3 1.4 0
v 0.3 1.5 0
v 0.4 0.9 0
v 0.4 1 0
v 0.4 1.1 0
v 0.4 1.3 0
v 0.4 1.4 0
v 0.5 1 0
v 0.5 1.1 0
v 0.5 1.2 0
v 0.6 1.1 0
v 0.6 1.2 0
v 0.6 1.3 0
v 0.6 1.4 0
v 0.7 1.2 0
v 0.7 1.3 0
v 0.7 1.4 0
v 0.7 1.5 0
v 0.8 1.3 0
v 0.8 1.4 0
v -0.7 0.1 -0.1
v -0.7 0.5 -0.1
v -0.6 0 -0.1
v -0.6 0.1 -0.1
v -0.6 0.2 -0.1
v -0.6 0.4 -0.1
v -0.6 0.5 -0.1
v -0.6 0.8 -0.1
v -0.5 0 -0.1
v -0.5 0.1 -0.1
v -0.5 0.2 -0.1
v -0.5 0.4 -0.1
v -0.5 0.5 -0.1
v -0.5 0.6 -0.1
v -0.5 0.7 -0.1
v -0.5 0.8 -0.1
v -0.5 1 -0.1
v -0.4 0.1 -0.1
v -0.4 0.2 -0.1
v -0.4 0.3 -0.1
v -0.4 0.5 -0.1
v -0.4 0.6 -0.1
v -0.4 0.7 -0.1
v -0.4 0.8 -0.1
v -0.4 0.9 -0.1
v -0.4 1 -0.1
v -0.4 1.1 -0.1
v -0.3 0.2 -0.1
v -0.3 0.3 -0.1
v -0.3 0.4 -0.1
v -0.3 0.5 -0.1
v -0.3 0.8 -0.1
v -0.3 0.9 -0.1
v -0.3 1 -0.1
v -0.3 1.1 -0.1
v -0.3 1.2 -0.1
v -0.2 0.3 -0.1
v -0.2 0.4 -0.1
v -0.2 0.5 -0.1
v -0.2 0.8 -0.1
v -0.2 0.9 -0.1
v -0.2 1 -0.1
v -0.2 1.1 -0.1
v -0.2 1.2 -0.1
v -0.2 1.3 -0.1
v -0.1 0.4 -0.1
v -0.1 0.5 -0.1
v -0.1 0.6 -0.1
v -0.1 0.9 -0.1
v -0.1 1 -0.1
v -0.1 1.1 -0.1
v -0.1 1.2 -0.1
v 0 0.5 -0.1
v 0 0.6 -0.1
v 0 0.7 -0.1
v 0 1 -0.1
v 0 1.1 -0.1
v 0 1.2 -0.1
v 0 1.3 -0.1
v 0 1.4 -0.1
v 0.1 0.6 -0.1
v 0.1 0.7 -0.1
v 0.1 0.8 -0.1
v 0.1 1.2 -0.1
v 0.1 1.3 -0.1
v 0.2 0.7 -0.1
v 0.2 0.8 -0.1
v 0.2 0.9 -0.1
v 0.2 1.2 -0.1
v 0.2 1.3 -0.1
v 0.3 0.8 -0.1
v 0.3 0.9 -0.1
v 0.3 1 -0.1
v 0.3 1.1 -0.1
v 0.3 1.2 -0.1
v 0.3 1.3 -0.1
v 0.3 1.4 -0.1
v 0.3 1.5 -0.1
v 0.4 0.9 -0.1
v 0.4 1 -0.1
v 0.4 1.1 -0.1
v 0.4 1.3 -0.1
v 0.4 1.4 -0.1
v 0.5 1 -0.1
v 0.5 1.1 -0.1
v 0.5 1.2 -0.1
v 0.6 1.1 -0.1
v 0.6 1.2 -0.1
v 0.6 1.3 -0.1
v 0.6 1.4 -0.1
v 0.7 1.2 -0.1
v 0.7 1.3 -0.1
v 0.7 1.4 -0.1
v 0.7 1.5 -0.1
v 0.8 1.3 -0.1
v 0.8 1.4 -0.1
v -0.6 0 0
v -0.5 0 0
v -0.6 0 -0.1
v -0.5 0 -0.1
v -0.7 0.1 0
v -0.6 0.1 0
v -0.5 0.1 0
v -0.4 0.1 0
v -0.7 0.1 -0.1
v -0.6 0.1 -0.1
v -0.5 0.1 -0.1
v -0.4 0.1 -0.1
v -0.4 0.2 0
v -0.3 0.2 0
v -0.4 0.2 -0.1
v -0.3 0.2 -0.1
v -0.3 0.3 0
v -0.2 0.3 0
v -0.3 0.3 -0.1
v -0.2 0.3 -0.1
v -0.2 0.4 0
v -0.1 0.4 0
v -0.2 0.4 -0.1
v -0.1 0.4 -0.1
v -0.4 0.5 0
v -0.3 0.5 0
v -0.1 0.5 0
v 0 0.5 0
v -0.4 0.5 -0.1
v -0.3 0.5 -0.1
v -0.1 0.5 -0.1
v 0 0.5 -0.1
v 0 0.6 0
v 0.1 0.6 0
v 0 0.6 -0.1
v 0.1 0.6 -0.1
v 0.1 0.7 0
v 0.2 0.7 0
v 0.1 0.7 -0.1
v 0.2 0.7 -0.1
v -0.3 0.8 0
v -0.2 0.8 0
v 0.2 0.8 0
v 0.3 0.8 0
v -0.3 0.8 -0.1
v -0.2 0.8 -0.1
v 0.2 0.8 -0.1
v 0.3 0.8 -0.1
v -0.2 0.9 0
v -0.1 0.9 0
v 0.3 0.9 0
v 0.4 0.9 0
v -0.2 0.9 -0.1
v -0.1 0.9 -0.1
v 0.3 0.9 -0.1
v 0.4 0.9 -0.1
v -0.1 1 0
v 0 1 0
v 0.4 1 0
v 0.5 1 0
v -0.1 1 -0.1
v 0 1 -0.1
v 0.4 1 -0.1
v 0.5 1 -0.1
v 0 1.1 0
v 0.3 1.1 0
v 0.5 1.1 0
v 0.6 1.1 0
v 0 1.1 -0.1
v 0.3 1.1 -0.1
v 0.5 1.1 -0.1
v 0.6 1.1 -0.1
v 0.3 1.2 0
v 0.5 1.2 0
v 0.6 1.2 0
v 0.7 1.2 0
v 0.3 1.2 -0.1
v 0.5 1.2 -0.1
v 0.6 1.2 -0.1
v 0.7 1.2 -0.1
v 0.7 1.3 0
v 0.8 1.3 0
v 0.7 1.3 -0.1
v 0.8 1.3 -0.1
v -0.4 0.3 0
v -0.3 0.3 0
v -0.4 0.3 -0.1
v -0.3 0.3 -0.1
v -0.3 0.4 0
v -0.2 0.4 0
v -0.3 0.4 -0.1
v -0.2 0.4 -0.1
v -0.7 0.5 0
v -0.6 0.5 0
v -0.2 0.5 0
v -0.1 0.5 0
v -0.7 0.5 -0.1
v -0.6 0.5 -0.1
v -0.2 0.5 -0.1
v -0.1 0.5 -0.1
v -0.1 0.6 0
v 0 0.6 0
v -0.1 0.6 -0.1
v 0 0.6 -0.1
v 0 0.7 0
v 0.1 0.7 0
v 0 0.7 -0.1
v 0.1 0.7 -0.1
v -0.6 0.8 0
v -0.5 0.8 0
v 0.1 0.8 0
v 0.2 0.8 0
v -0.6 0.8 -0.1
v -0.5 0.8 -0.1
v 0.1 0.8 -0.1
v 0.2 0.8 -0.1
v 0.2 0.9 0
v 0.3 0.9 0
v 0.2 0.9 -0.1
v 0.3 0.9 -0.1
v -0.5 1 0
v -0.4 1 0
v 0.3 1 0
v 0.4 1 0
v -0.5 1 -0.1
v -0.4 1 -0.1
v 0.3 1 -0.1
v 0.4 1 -0.1
v -0.4 1.1 0
v -0.3 1.1 0
v 0.4 1.1 0
v 0.5 1.1 0
v -0.4 1.1 -0.1
v -0.3 1.1 -0.1
v 0.4 1.1 -0.1
v 0.5 1.1 -0.1
v -0.3 1.2 0
v -0.2 1.2 0
v -0.3 1.2 -0.1
v -0.2 1.2 -0.1
v -0.2 1.3 0
v 0 1.3 0
v -0.2 1.3 -0.1
v 0 1.3 -0.1
v 0 1.4 0
v 0.3 1.4 0
v 0.7 1.4 0
v 0.8 1.4 0
v 0 1.4 -0.1
v 0.3 1.4 -0.1
v 0.7 1.4 -0.1
v 0.8 1.4 -0.1
v 0.3 1.5 0
v 0.7 1.5 0
v 0.3 1.5 -0.1
v 0.7 1.5 -0.1

# faces
f 3/6/1 2/6/1 1/6/1
f 4/6/1 2/6/1 3/6/1
f 7/7/1 6/7/1 5/7/1
f 8/7/1 6/7/1 7/7/1
f 11/6/1 10/6/1 9/6/1
f 12/6/1 10/6/1 11/6/1
f 15/6/1 14/6/1 13/6/1
f 16/6/1 14/6/1 15/6/1
f 19/6/1 18/6/1 17/6/1
f 20/6/1 18/6/1 19/6/1
f 23/3/1 22/3/1 21/3/1
f 24/3/1 22/3/1 23/3/1
f 27/6/1 26/6/1 25/6/1
f 28/6/1 26/6/1 27/6/1
f 31/3/1 30/3/1 29/3/1
f 32/3/1 30/3/1 31/3/1
f 35/6/1 34/6/1 33/6/1
f 36/6/1 34/6/1 35/6/1
f 39/3/1 38/3/1 37/3/1
f 40/3/1 38/3/1 39/3/1
f 43/3/1 42/3/1 41/3/1
f 44/3/1 42/3/1 43/3/1
f 47/6/1 46/6/1 45/6/1
f 48/6/1 46/6/1 47/6/1
f 51/3/1 50/3/1 49/3/1
f 52/3/1 50/3/1 51/3/1
f 55/3/1 54/3/1 53/3/1
f 56/3/1 54/3/1 55/3/1
f 59/3/1 58/3/1 57/3/1
f 60/3/1 58/3/1 59/3/1
f 63/6/1 62/6/1 61/6/1
f 64/6/1 62/6/1 63/6/1
f 67/3/1 66/3/1 65/3/1
f 68/3/1 66/3/1 67/3/1
f 71/3/1 70/3/1 69/3/1
f 72/3/1 70/3/1 71/3/1
f 73/7/2 74/7/2 75/7/2
f 75/7/2 74/7/2 76/7/2
f 77/7/2 78/7/2 79/7/2
f 79/7/2 78/7/2 80/7/2
f 81/7/2 82/7/2 83/7/2
f 83/7/2 82/7/2 84/7/2
f 85/3/2 86/3/2 87/3/2
f 87/3/2 86/3/2 88/3/2
f 89/7/2 90/7/2 91/7/2
f 91/7/2 90/7/2 92/7/2
f 93/3/2 94/3/2 95/3/2
f 95/3/2 94/3/2 96/3/2
f 97/2/2 98/2/2 99/2/2
f 99/2/2 98/2/2 100/2/2
f 101/3/2 102/3/2 103/3/2
f 103/3/2 102/3/2 104/3/2
f 105/2/2 106/2/2 107/2/2
f 107/2/2 106/2/2 108/2/2
f 109/3/2 110/3/2 111/3/2
f 111/3/2 110/3/2 112/3/2
f 113/2/2 114/2/2 115/2/2
f 115/2/2 114/2/2 116/2/2
f 117/3/2 118/3/2 119/3/2
f 119/3/2 118/3/2 120/3/2
f 121/3/2 122/3/2 123/3/2
f 123/3/2 122/3/2 124/3/2
f 125/3/2 126/3/2 127/3/2
f 127/3/2 126/3/2 128/3/2
f 129/7/2 130/7/2 131/7/2
f 131/7/2 130/7/2 132/7/2
f 133/3/2 134/3/2 135/3/2
f 135/3/2 134/3/2 136/3/2
f 137/3/2 138/3/2 139/3/2
f 139/3/2 138/3/2 140/3/2
f 141/3/2 142/3/2 143/3/2
f 143/3/2 142/3/2 144/3/2
f 145/7/2 146/7/2 147/7/2
f 147/7/2 146/7/2 148/7/2
f 149/6/2 150/6/2 151/6/2
f 151/6/2 150/6/2 152/6/2
f 153/7/2 154/7/2 155/7/2
f 155/7/2 154/7/2 156/7/2
f 160/6/3 158/6/3 157/6/3
f 161/6/3 158/6/3 160/6/3
f 162/6/3 158/6/3 161/6/3
f 163/6/3 158/6/3 162/6/3
f 165/7/3 160/7/3 159/7/3
f 166/4/3 161/4/3 160/4/3
f 166/7/3 160/7/3 165/7/3
f 167/5/3 162/5/3 161/5/3
f 167/4/3 161/4/3 166/4/3
f 168/4/3 163/4/3 162/4/3
f 168/5/3 162/5/3 167/5/3
f 169/6/3 164/6/3 163/6/3
f 169/4/3 163/4/3 168/4/3
f 170/6/3 164/6/3 169/6/3
f 171/6/3 164/6/3 170/6/3
f 172/6/3 164/6/3 171/6/3
f 174/7/3 168/7/3 167/7/3
f 174/7/3 167/7/3 166/7/3
f 174/7/3 169/7/3 168/7/3
f 175/7/3 169/7/3 174/7/3
f 176/7/3 169/7/3 175/7/3
f 177/4/3 170/4/3 169/4/3
f 177/7/3 169/7/3 176/7/3
f 178/5/3 171/5/3 170/5/3
f 178/4/3 170/4/3 177/4/3
f 179/4/3 172/4/3 171/4/3
f 179/5/3 171/5/3 178/5/3
f 180/6/3 173/6/3 172/6/3
f 180/4/3 172/4/3 179/4/3
f 181/6/3 173/6/3 180/6/3
f 182/6/3 173/6/3 181/6/3
f 184/3/3 176/3/3 175/3/3
f 185/3/3 176/3/3 184/3/3
f 187/7/3 179/7/3 178/7/3
f 187/7/3 178/7/3 177/7/3
f 187/7/3 180/7/3 179/7/3
f 188/5/3 181/5/3 180/5/3
f 188/7/3 180/7/3 187/7/3
f 189/2/3 182/2/3 181/2/3
f 189/5/3 181/5/3 188/5/3
f 190/6/3 183/6/3 182/6/3
f 190/2/3 182/2/3 189/2/3
f 191/6/3 183/6/3 190/6/3
f 193/3/3 186/3/3 185/3/3
f 194/3/3 186/3/3 193/3/3
f 196/2/3 189/2/3 188/2/3
f 197/1/3 190/1/3 189/1/3
f 197/2/3 189/2/3 196/2/3
f 198/2/3 191/2/3 190/2/3
f 198/1/3 190/1/3 197/1/3
f 199/6/3 192/6/3 191/6/3
f 199/2/3 191/2/3 198/2/3
f 200/6/3 192/6/3 199/6/3
f 202/3/3 195/3/3 194/3/3
f 203/3/3 195/3/3 202/3/3
f 205/2/3 198/2/3 197/2/3
f 206/1/3 199/1/3 198/1/3
f 206/2/3 198/2/3 205/2/3
f 207/2/3 200/2/3 199/2/3
f 207/1/3 199/1/3 206/1/3
f 208/6/3 201/6/3 200/6/3
f 208/2/3 200/2/3 207/2/3
f 209/3/3 204/3/3 203/3/3
f 210/3/3 204/3/3 209/3/3
f 212/2/3 207/2/3 206/2/3
f 213/5/3 208/5/3 207/5/3
f 213/2/3 207/2/3 212/2/3
f 214/6/3 201/6/3 208/6/3
f 214/5/3 208/5/3 213/5/3
f 215/6/3 201/6/3 214/6/3
f 217/3/3 211/3/3 210/3/3
f 218/3/3 211/3/3 217/3/3
f 220/4/3 215/4/3 214/4/3
f 220/7/3 214/7/3 213/7/3
f 221/6/3 216/6/3 215/6/3
f 221/4/3 215/4/3 220/4/3
f 222/3/3 219/3/3 218/3/3
f 223/3/3 219/3/3 222/3/3
f 225/7/3 220/7/3 213/7/3
f 225/5/3 221/5/3 220/5/3
f 226/6/3 216/6/3 221/6/3
f 226/5/3 221/5/3 225/5/3
f 227/3/3 224/3/3 223/3/3
f 228/3/3 224/3/3 227/3/3
f 230/7/3 225/7/3 213/7/3
f 231/4/3 226/4/3 225/4/3
f 231/7/3 225/7/3 230/7/3
f 232/6/3 216/6/3 226/6/3
f 232/4/3 226/4/3 231/4/3
f 233/6/3 216/6/3 232/6/3
f 235/3/3 229/3/3 228/3/3
f 236/3/3 229/3/3 235/3/3
f 238/4/3 233/4/3 232/4/3
f 238/7/3 232/7/3 231/7/3
f 239/6/3 234/6/3 233/6/3
f 239/4/3 233/4/3 238/4/3
f 240/3/3 237/3/3 236/3/3
f 241/3/3 237/3/3 240/3/3
f 242/7/3 238/7/3 231/7/3
f 243/3/3 242/3/3 241/3/3
f 244/7/3 238/7/3 242/7/3
f 244/3/3 242/3/3 243/3/3
f 245/5/3 239/5/3 238/5/3
f 245/7/3 238/7/3 244/7/3
f 246/6/3 234/6/3 239/6/3
f 246/5/3 239/5/3 245/5/3
f 247/7/3 245/7/3 244/7/3
f 248/4/3 246/4/3 245/4/3
f 248/7/3 245/7/3 247/7/3
f 249/6/3 234/6/3 246/6/3
f 249/4/3 246/4/3 248/4/3
f 250/6/3 234/6/3 249/6/3
f 251/7/3 249/7/3 248/7/3
f 252/7/3 249/7/3 251/7/3
f 253/6/4 254/6/4 256/6/4
f 256/6/4 254/6/4 257/6/4
f 257/6/4 254/6/4 258/6/4
f 258/6/4 254/6/4 259/6/4
f 255/7/4 256/7/4 261/7/4
f 256/4/4 257/4/4 262/4/4
f 261/7/4 256/7/4 262/7/4
f 257/5/4 258/5/4 263/5/4
f 262/4/4 257/4/4 263/4/4
f 258/4/4 259/4/4 264/4/4
f 263/5/4 258/5/4 264/5/4
f 259/6/4 260/6/4 265/6/4
f 264/4/4 259/4/4 265/4/4
f 265/6/4 260/6/4 266/6/4
f 266/6/4 260/6/4 267/6/4
f 267/6/4 260/6/4 268/6/4
f 263/7/4 264/7/4 270/7/4
f 262/7/4 263/7/4 270/7/4
f 264/7/4 265/7/4 270/7/4
f 270/7/4 265/7/4 271/7/4
f 271/7/4 265/7/4 272/7/4
f 265/4/4 266/4/4 273/4/4
f 272/7/4 265/7/4 273/7/4
f 266/5/4 267/5/4 274/5/4
f 273/4/4 266/4/4 274/4/4
f 267/4/4 268/4/4 275/4/4
f 274/5/4 267/5/4 275/5/4
f 268/6/4 269/6/4 276/6/4
f 275/4/4 268/4/4 276/4/4
f 276/6/4 269/6/4 277/6/4
f 277/6/4 269/6/4 278/6/4
f 271/3/4 272/3/4 280/3/4
f 280/3/4 272/3/4 281/3/4
f 274/7/4 275/7/4 283/7/4
f 273/7/4 274/7/4 283/7/4
f 275/7/4 276/7/4 283/7/4
f 276/5/4 277/5/4 284/5/4
f 283/7/4 276/7/4 284/7/4
f 277/2/4 278/2/4 285/2/4
f 284/5/4 277/5/4 285/5/4
f 278/6/4 279/6/4 286/6/4
f 285/2/4 278/2/4 286/2/4
f 286/6/4 279/6/4 287/6/4
f 281/3/4 282/3/4 289/3/4
f 289/3/4 282/3/4 290/3/4
f 284/2/4 285/2/4 292/2/4
f 285/1/4 286/1/4 293/1/4
f 292/2/4 285/2/4 293/2/4
f 286/2/4 287/2/4 294/2/4
f 293/1/4 286/1/4 294/1/4
f 287/6/4 288/6/4 295/6/4
f 294/2/4 287/2/4 295/2/4
f 295/6/4 288/6/4 296/6/4
f 290/3/4 291/3/4 298/3/4
f 298/3/4 291/3/4 299/3/4
f 293/2/4 294/2/4 301/2/4
f 294/1/4 295/1/4 302/1/4
f 301/2/4 294/2/4 302/2/4
f 295/2/4 296/2/4 303/2/4
f 302/1/4 295/1/4 303/1/4
f 296/6/4 297/6/4 304/6/4
f 303/2/4 296/2/4 304/2/4
f 299/3/4 300/3/4 305/3/4
f 305/3/4 300/3/4 306/3/4
f 302/2/4 303/2/4 308/2/4
f 303/5/4 304/5/4 309/5/4
f 308/2/4 303/2/4 309/2/4
f 304/6/4 297/6/4 310/6/4
f 309/5/4 304/5/4 310/5/4
f 310/6/4 297/6/4 311/6/4
f 306/3/4 307/3/4 313/3/4
f 313/3/4 307/3/4 314/3/4
f 310/4/4 311/4/4 316/4/4
f 309/7/4 310/7/4 316/7/4
f 311/6/4 312/6/4 317/6/4
f 316/4/4 311/4/4 317/4/4
f 314/3/4 315/3/4 318/3/4
f 318/3/4 315/3/4 319/3/4
f 309/7/4 316/7/4 321/7/4
f 316/5/4 317/5/4 321/5/4
f 317/6/4 312/6/4 322/6/4
f 321/5/4 317/5/4 322/5/4
f 319/3/4 320/3/4 323/3/4
f 323/3/4 320/3/4 324/3/4
f 309/7/4 321/7/4 326/7/4
f 321/4/4 322/4/4 327/4/4
f 326/7/4 321/7/4 327/7/4
f 322/6/4 312/6/4 328/6/4
f 327/4/4 322/4/4 328/4/4
f 328/6/4 312/6/4 329/6/4
f 324/3/4 325/3/4 331/3/4
f 331/3/4 325/3/4 332/3/4
f 328/4/4 329/4/4 334/4/4
f 327/7/4 328/7/4 334/7/4
f 329/6/4 330/6/4 335/6/4
f 334/4/4 329/4/4 335/4/4
f 332/3/4 333/3/4 336/3/4
f 336/3/4 333/3/4 337/3/4
f 327/7/4 334/7/4 338/7/4
f 337/3/4 338/3/4 339/3/4
f 338/7/4 334/7/4 340/7/4
f 339/3/4 338/3/4 340/3/4
f 334/5/4 335/5/4 341/5/4
f 340/7/4 334/7/4 341/7/4
f 335/6/4 330/6/4 342/6/4
f 341/5/4 335/5/4 342/5/4
f 340/7/4 341/7/4 343/7/4
f 341/4/4 342/4/4 344/4/4
f 343/7/4 341/7/4 344/7/4
f 342/6/4 330/6/4 345/6/4
f 344/4/4 342/4/4 345/4/4
f 345/6/4 330/6/4 346/6/4
f 344/7/4 345/7/4 347/7/4
f 347/7/4 345/7/4 348/7/4
f 351/7/5 350/7/5 349/7/5
f 352/7/5 350/7/5 351/7/5
f 357/6/5 354/6/5 353/6/5
f 358/6/5 354/6/5 357/6/5
f 359/7/5 356/7/5 355/7/5
f 360/7/5 356/7/5 359/7/5
f 363/3/5 362/3/5 361/3/5
f 364/3/5 362/3/5 363/3/5
f 367/3/5 366/3/5 365/3/5
f 368/3/5 366/3/5 367/3/5
f 371/3/5 370/3/5 369/3/5
f 372/3/5 370/3/5 371/3/5
f 377/7/5 374/7/5 373/7/5
f 378/7/5 374/7/5 377/7/5
f 379/3/5 376/3/5 375/3/5
f 380/3/5 376/3/5 379/3/5
f 383/3/5 382/3/5 381/3/5
f 384/3/5 382/3/5 383/3/5
f 387/3/5 386/3/5 385/3/5
f 388/3/5 386/3/5 387/3/5
f 393/2/5 390/2/5 389/2/5
f 394/2/5 390/2/5 393/2/5
f 395/3/5 392/3/5 391/3/5
f 396/3/5 392/3/5 395/3/5
f 401/2/5 398/2/5 397/2/5
f 402/2/5 398/2/5 401/2/5
f 403/3/5 400/3/5 399/3/5
f 404/3/5 400/3/5 403/3/5
f 409/2/5 406/2/5 405/2/5
f 410/2/5 406/2/5 409/2/5
f 411/3/5 408/3/5 407/3/5
f 412/3/5 408/3/5 411/3/5
f 417/7/5 414/7/5 413/7/5
f 418/7/5 414/7/5 417/7/5
f 419/3/5 416/3/5 415/3/5
f 420/3/5 416/3/5 419/3/5
f 425/7/5 422/7/5 421/7/5
f 426/7/5 422/7/5 425/7/5
f 427/7/5 424/7/5 423/7/5
f 428/7/5 424/7/5 427/7/5
f 431/7/5 430/7/5 429/7/5
f 432/7/5 430/7/5 431/7/5
f 433/3/6 434/3/6 435/3/6
f 435/3/6 434/3/6 436/3/6
f 437/3/6 438/3/6 439/3/6
f 439/3/6 438/3/6 440/3/6
f 441/6/6 442/6/6 445/6/6
f 445/6/6 442/6/6 446/6/6
f 443/3/6 444/3/6 447/3/6
f 447/3/6 444/3/6 448/3/6
f 449/3/6 450/3/6 451/3/6
f 451/3/6 450/3/6 452/3/6
f 453/3/6 454/3/6 455/3/6
f 455/3/6 454/3/6 456/3/6
f 457/6/6 458/6/6 461/6/6
f 461/6/6 458/6/6 462/6/6
f 459/3/6 460/3/6 463/3/6
f 463/3/6 460/3/6 464/3/6
f 465/3/6 466/3/6 467/3/6
f 467/3/6 466/3/6 468/3/6
f 469/6/6 470/6/6 473/6/6
f 473/6/6 470/6/6 474/6/6
f 471/3/6 472/3/6 475/3/6
f 475/3/6 472/3/6 476/3/6
f 477/6/6 478/6/6 481/6/6
f 481/6/6 478/6/6 482/6/6
f 479/3/6 480/3/6 483/3/6
f 483/3/6 480/3/6 484/3/6
f 485/6/6 486/6/6 487/6/6
f 487/6/6 486/6/6 488/6/6
f 489/6/6 490/6/6 491/6/6
f 491/6/6 490/6/6 492/6/6
f 493/6/6 494/6/6 497/6/6
f 497/6/6 494/6/6 498/6/6
f 495/7/6 496/7/6 499/7/6
f 499/7/6 496/7/6 500/7/6
f 501/6/6 502/6/6 503/6/6
f 503/6/6 502/6/6 504/6/6
